<?xml version="1.0" encoding="UTF-8" standalone="no"?>
<!-- Generator: Adobe Illustrator 27.5.0, SVG Export Plug-In . SVG Version: 6.00 Build 0)  -->

<svg
   version="1.1"
   x="0px"
   y="0px"
   viewBox="0 0 489 339"
   xml:space="preserve"
   id="svg12162"
   sodipodi:docname="logoDark.svg"
   inkscape:version="1.4 (86a8ad7, 2024-10-11)"
   width="489"
   height="339"
   xmlns:inkscape="http://www.inkscape.org/namespaces/inkscape"
   xmlns:sodipodi="http://sodipodi.sourceforge.net/DTD/sodipodi-0.dtd"
   xmlns="http://www.w3.org/2000/svg"
   xmlns:svg="http://www.w3.org/2000/svg"><defs
   id="defs12162" /><sodipodi:namedview
   id="namedview12162"
   pagecolor="#505050"
   bordercolor="#eeeeee"
   borderopacity="1"
   inkscape:showpageshadow="0"
   inkscape:pageopacity="0"
   inkscape:pagecheckerboard="0"
   inkscape:deskcolor="#505050"
   inkscape:zoom="1.666"
   inkscape:cx="250.30012"
   inkscape:cy="158.76351"
   inkscape:window-width="1920"
   inkscape:window-height="1051"
   inkscape:window-x="-9"
   inkscape:window-y="-9"
   inkscape:window-maximized="1"
   inkscape:current-layer="g1" />




<g
   id="g1"
   transform="matrix(0.66163176,0,0,0.66163176,82.48668,-92.533133)"><rect
     style="fill:#ffffff;fill-opacity:1;stroke:none;stroke-width:5.03635;stroke-linecap:square;paint-order:stroke fill markers"
     id="rect1"
     width="62.320702"
     height="206.0304"
     x="233.30014"
     y="150.74248"
     ry="7.9063582" /><rect
     style="fill:#ffffff;fill-opacity:1;stroke:none;stroke-width:5.03635;stroke-linecap:square;paint-order:stroke fill markers"
     id="rect1-0"
     width="62.320702"
     height="206.0304"
     x="219.8811"
     y="-367.37704"
     ry="7.9063582"
     transform="rotate(90.175276)" /><g
     id="Objects"
     transform="matrix(1.4135554,0,0,1.4135554,-107.70892,101.98567)"
     style="display:inline">
	<g
   id="g79"
   transform="matrix(1.4128082,0,0,1.4128082,-97.162929,-112.48818)"
   style="stroke:#272727;stroke-opacity:1;stroke-width:5.9947024;stroke-dasharray:none">
					<g
   id="g77"
   style="fill:#ffc101;fill-opacity:1;stroke:#272727;stroke-opacity:1;stroke-width:5.9947024;stroke-dasharray:none">
						<path
   style="fill:#ffc101;fill-opacity:1;stroke:#272727;stroke-width:5.9947024;stroke-miterlimit:10;stroke-opacity:1;stroke-dasharray:none"
   d="m 250.519,200.752 h -77.533 l -31.013,96.198 107.11,45.945 14.629,8.95 c 4.963,4.142 12.412,3.47 16.553,-1.493 3.376,-4.046 3.542,-9.738 0.802,-13.949 -0.046,-0.071 0.037,-0.148 0.102,-0.094 l 3.986,3.326 c 5.855,4.886 14.644,4.094 19.531,-1.762 v 0 c 4.254,-5.098 4.19,-12.41 0.241,-17.443 -0.056,-0.071 0.035,-0.161 0.104,-0.104 l 5.979,4.989 c 5.855,4.887 14.644,4.094 19.531,-1.762 v 0 c 3.985,-4.775 4.19,-11.5 0.955,-16.47 5.821,4.059 13.945,3.063 18.572,-2.483 v 0 c 4.887,-5.855 4.094,-14.644 -1.762,-19.531 z"
   id="path74" />
						<g
   id="g76"
   style="fill:#ffc101;fill-opacity:1;stroke:#272727;stroke-opacity:1;stroke-width:5.9947024;stroke-dasharray:none">
							
								<line
   style="fill:#ffc101;fill-opacity:1;stroke:#272727;stroke-width:5.9947024;stroke-linecap:round;stroke-linejoin:round;stroke-miterlimit:10;stroke-opacity:1;stroke-dasharray:none"
   x1="331.49399"
   y1="307.08401"
   x2="295.603"
   y2="274.552"
   id="line74" />
							
								<line
   style="fill:#ffc101;fill-opacity:1;stroke:#272727;stroke-width:5.9947024;stroke-linecap:round;stroke-linejoin:round;stroke-miterlimit:10;stroke-opacity:1;stroke-dasharray:none"
   x1="305.69199"
   y1="321.207"
   x2="269.80099"
   y2="288.67499"
   id="line75" />
							
								<line
   style="fill:#ffc101;fill-opacity:1;stroke:#272727;stroke-width:5.9947024;stroke-linecap:round;stroke-linejoin:round;stroke-miterlimit:10;stroke-opacity:1;stroke-dasharray:none"
   x1="282.23801"
   y1="337.03299"
   x2="247.621"
   y2="303.862"
   id="line76" />
						</g>
					</g>
					<g
   id="g78"
   style="stroke:#272727;stroke-opacity:1;stroke-width:5.9947024;stroke-dasharray:none">
						
						<polygon
   style="fill:#ffffff;fill-opacity:1;stroke:#272727;stroke-width:5.9947024;stroke-miterlimit:10;stroke-opacity:1;stroke-dasharray:none"
   points="80.17,317.598 61.442,166.517 164.904,187.158 125.892,325.666 "
   id="polygon78" />
					</g>
				</g><g
   id="g85"
   transform="matrix(1.4128082,0,0,1.4128082,-97.162929,-112.48818)"
   style="stroke:#272727;stroke-opacity:1;stroke-width:5.9947024;stroke-dasharray:none">
					<g
   id="g83"
   style="stroke:#272727;stroke-opacity:1;stroke-width:5.9947024;stroke-dasharray:none">
						<g
   id="g82"
   style="fill:#00e1fd;fill-opacity:1;stroke:#272727;stroke-opacity:1;stroke-width:5.9947024;stroke-dasharray:none">
							<path
   style="fill:#00e1fd;fill-opacity:1;stroke:#272727;stroke-width:5.9947024;stroke-miterlimit:10;stroke-opacity:1;stroke-dasharray:none"
   d="m 158.01,314.085 v 0 c -6.738,-1.953 -10.653,-9.064 -8.7,-15.802 l 6.648,-22.936 c 1.953,-6.738 9.064,-10.653 15.802,-8.7 v 0 c 6.738,1.953 10.653,9.064 8.7,15.802 l -6.648,22.937 c -1.953,6.737 -9.064,10.652 -15.802,8.699 z"
   id="path79" />
							<path
   style="fill:#00e1fd;fill-opacity:1;stroke:#272727;stroke-width:5.9947024;stroke-miterlimit:10;stroke-opacity:1;stroke-dasharray:none"
   d="m 183.28,327.582 v 0 c -6.738,-1.953 -10.653,-9.064 -8.7,-15.802 l 6.648,-22.937 c 1.953,-6.738 9.064,-10.653 15.802,-8.7 v 0 c 6.738,1.953 10.653,9.064 8.7,15.802 l -6.648,22.937 c -1.953,6.738 -9.064,10.653 -15.802,8.7 z"
   id="path80" />
							<path
   style="fill:#00e1fd;fill-opacity:1;stroke:#272727;stroke-width:5.9947024;stroke-miterlimit:10;stroke-opacity:1;stroke-dasharray:none"
   d="m 208.837,340.504 v 0 c -6.738,-1.953 -10.653,-9.064 -8.7,-15.802 l 6.648,-22.936 c 1.953,-6.738 9.064,-10.653 15.802,-8.7 v 0 c 6.738,1.953 10.653,9.064 8.7,15.802 l -6.648,22.936 c -1.953,6.738 -9.064,10.653 -15.802,8.7 z"
   id="path81" />
							<path
   style="fill:#00e1fd;fill-opacity:1;stroke:#272727;stroke-width:5.9947024;stroke-miterlimit:10;stroke-opacity:1;stroke-dasharray:none"
   d="m 234.681,353.426 v 0 c -6.738,-1.953 -10.653,-9.064 -8.7,-15.802 l 6.648,-22.936 c 1.953,-6.738 9.064,-10.653 15.802,-8.7 v 0 c 6.738,1.953 10.653,9.064 8.7,15.802 l -6.648,22.936 c -1.953,6.738 -9.063,10.653 -15.802,8.7 z"
   id="path82" />
						</g>
						<path
   style="fill:#00e1fd;fill-opacity:1;stroke:#272727;stroke-width:5.9947024;stroke-miterlimit:10;stroke-opacity:1;stroke-dasharray:none"
   d="m 213.845,250.891 22.603,-49.564 c 0,0 6.318,-17.804 27.567,-13.496 21.25,4.307 66.046,14.071 66.046,14.071 l 31.875,88.465 h -9.476 l -73.924,-64.068 c -0.846,-0.733 -1.928,-1.137 -3.048,-1.137 h -9.657 c -1.658,0 -3.191,0.882 -4.023,2.316 l -16.444,28.298 c -3.845,6.617 -12.258,8.972 -18.98,5.313 l -11.166,-6.079 c -1.467,-0.801 -2.067,-2.599 -1.373,-4.119 z"
   id="path83"
   sodipodi:nodetypes="cccccccssccccc" />
					</g>
					<g
   id="g84"
   style="stroke:#272727;stroke-opacity:1;stroke-width:5.9947024;stroke-dasharray:none">
						
						<polygon
   style="fill:#ffffff;fill-opacity:1;stroke:#272727;stroke-width:5.93516142;stroke-miterlimit:10;stroke-opacity:1;stroke-dasharray:none"
   points="429.36,169.533 341.015,187.158 380.027,325.666 427.5,315.227 "
   id="polygon84"
   transform="matrix(1.0203175,0,0,0.99985,-8.7321499,0.03713673)" />
					</g>
				</g>
</g></g></svg>
