<?xml version="1.0" encoding="UTF-8" standalone="no"?>
<!-- Generator: Adobe Illustrator 27.5.0, SVG Export Plug-In . SVG Version: 6.00 Build 0)  -->

<svg
   version="1.1"
   x="0px"
   y="0px"
   viewBox="0 0 873 763"
   xml:space="preserve"
   id="svg2"
   sodipodi:docname="donate.svg"
   width="873"
   height="763"
   inkscape:version="1.4 (86a8ad7, 2024-10-11)"
   xmlns:inkscape="http://www.inkscape.org/namespaces/inkscape"
   xmlns:sodipodi="http://sodipodi.sourceforge.net/DTD/sodipodi-0.dtd"
   xmlns="http://www.w3.org/2000/svg"
   xmlns:svg="http://www.w3.org/2000/svg"><defs
   id="defs2" /><sodipodi:namedview
   id="namedview2"
   pagecolor="#505050"
   bordercolor="#eeeeee"
   borderopacity="1"
   inkscape:showpageshadow="0"
   inkscape:pageopacity="0"
   inkscape:pagecheckerboard="0"
   inkscape:deskcolor="#505050"
   inkscape:zoom="0.74242424"
   inkscape:cx="421.59184"
   inkscape:cy="357.61225"
   inkscape:window-width="1920"
   inkscape:window-height="1051"
   inkscape:window-x="-9"
   inkscape:window-y="-9"
   inkscape:window-maximized="1"
   inkscape:current-layer="g2" />

<g
   id="Object"
   transform="matrix(1.3196932,0,0,1.3196932,-303.8752,-358.93544)">
	<g
   id="g2">
		<path
   style="fill:#dd3838;fill-opacity:1"
   d="m 676.258,347.819 c 0,-41.808 -34.014,-75.835 -75.821,-75.835 -30.663,0 -57.146,18.311 -69.06,44.57 -11.936,-26.259 -38.39,-44.57 -69.071,-44.57 -41.797,0 -75.821,34.027 -75.821,75.835 0,8.802 1.529,17.27 4.309,25.146 3.168,8.97 7.969,17.181 14.062,24.241 2.595,3.018 5.432,5.837 8.472,8.431 l 115.639,114.859 c 0.723,0.723 1.668,1.076 2.595,1.076 0.933,0 1.86,-0.352 2.576,-1.076 l 119.955,-119.161 -0.007,-0.018 c 7.772,-7.783 13.87,-17.252 17.687,-27.799 2.903,-8.041 4.485,-16.676 4.485,-25.699 z"
   id="path1" />
		<path
   style="fill:#979797;fill-opacity:1"
   d="m 891.524,636.731 0.214,-0.596 c -47.784,0 -77.036,-29.13 -112.2,-53.668 -25.528,-17.809 -54.149,-33.225 -95.358,-33.225 -18.51,0 -34.227,0.164 -47.58,0.556 h -97.161 c -14.216,0 -25.731,11.525 -25.731,25.738 0,14.215 11.515,25.741 25.731,25.741 h 55.047 36.194 c 18.393,3.004 32.466,18.921 32.466,38.176 0,14.605 -8.154,27.167 -20.086,33.746 -2.893,0.781 -16.846,4.487 -35.47,9.416 -12.01,2.89 -23.414,5.948 -34.11,9.045 l -2.298,0.592 c -40.065,10.599 -83.226,21.961 -91.045,23.795 -5.171,0.278 -9.915,0.054 -14.077,-0.984 l -143.716,-93.158 -26.026,-18.828 -0.018,0.052 c -1.223,-0.833 -2.559,-1.556 -3.884,-2.223 -1.925,-0.979 -3.91,-1.835 -6.002,-2.484 -1.643,-0.48 -3.357,-0.833 -5.078,-1.111 -1.846,-0.278 -3.717,-0.464 -5.635,-0.464 -2.565,0 -5.068,0.26 -7.488,0.763 -21.226,1.832 -37.951,19.437 -37.951,41.141 0,11.49 4.772,21.754 12.341,29.223 l -0.028,0.036 0.196,0.15 c 3.019,2.93 6.401,5.467 10.182,7.413 l 9.904,7.192 225.277,163.302 0.017,-0.018 c 0.916,0.353 1.843,0.701 2.769,1.072 5.068,1.742 10.435,2.894 16.087,2.894 3.307,0 6.532,-0.352 9.665,-0.966 l 1.12,-0.296 c 76.316,-19.423 234.022,-59.507 307.826,-77.685 1.814,-0.688 3.528,-1.319 5.31,-1.985 18.828,-4.725 44.523,-10.339 60.596,-10.339 v -10.787 l 0.214,-0.018 -0.214,-14.808 v -93.159 z"
   id="path2" />
	</g>
</g>
</svg>
