<?xml version="1.0" encoding="UTF-8" standalone="no"?>
<!-- Generator: Adobe Illustrator 27.5.0, SVG Export Plug-In . SVG Version: 6.00 Build 0)  -->

<svg
   version="1.1"
   id="Layer_1"
   x="0px"
   y="0px"
   viewBox="0 0 439 450"
   xml:space="preserve"
   sodipodi:docname="medicines.svg"
   width="439"
   height="450"
   inkscape:version="1.4 (86a8ad7, 2024-10-11)"
   xmlns:inkscape="http://www.inkscape.org/namespaces/inkscape"
   xmlns:sodipodi="http://sodipodi.sourceforge.net/DTD/sodipodi-0.dtd"
   xmlns="http://www.w3.org/2000/svg"
   xmlns:svg="http://www.w3.org/2000/svg"><defs
   id="defs86" /><sodipodi:namedview
   id="namedview86"
   pagecolor="#505050"
   bordercolor="#eeeeee"
   borderopacity="1"
   inkscape:showpageshadow="0"
   inkscape:pageopacity="0"
   inkscape:pagecheckerboard="0"
   inkscape:deskcolor="#505050"
   inkscape:zoom="1.8511111"
   inkscape:cx="224.72989"
   inkscape:cy="268.21729"
   inkscape:window-width="1920"
   inkscape:window-height="1051"
   inkscape:window-x="-9"
   inkscape:window-y="-9"
   inkscape:window-maximized="1"
   inkscape:current-layer="Layer_1" />
<g
   id="g86"
   transform="matrix(1.3665399,0,0,1.3665399,-87.942182,-82.232905)">
	<g
   id="g38">
		<path
   style="fill:#bc9b96"
   d="m 332.958,338.487 -2.604,1.531 c -0.981,-0.89 -2.119,-1.731 -3.448,-2.499 L 210.127,270.097 c -11.38,-6.57 -31.443,-5.739 -44.583,1.848 l -35.132,20.284 c -2.827,1.632 -5.078,3.455 -6.81,5.367 l -2.44,-1.533 c 0,0 -5.048,7.44 -0.438,15.539 0.025,0.044 0.052,0.065 0.078,0.108 1.224,2.332 3.332,4.482 6.41,6.259 l 116.778,67.422 c 11.38,6.57 31.443,5.739 44.584,-1.848 l 35.132,-20.284 c 4.251,-2.454 7.257,-5.329 9.021,-8.315 0.028,-0.046 0.057,-0.067 0.085,-0.115 5.285,-8.997 0.146,-16.342 0.146,-16.342 z"
   id="path1" />
		<path
   style="fill:#dec9c5"
   d="M 243.99,380.53 127.211,313.108 c -11.38,-6.57 -9.939,-18.153 3.201,-25.741 l 35.132,-20.283 c 13.141,-7.587 33.204,-8.418 44.584,-1.848 l 116.779,67.422 c 11.38,6.57 9.94,18.153 -3.201,25.74 l -35.132,20.284 c -13.141,7.587 -33.204,8.418 -44.584,1.848 z"
   id="path2" />
		<g
   id="g20">
			<g
   id="g7">
				<g
   id="g4">
					<path
   style="fill:#399ee2"
   d="m 155.253,301.367 c -6.961,0 -12.604,-3.002 -12.604,-6.704 v 8.848 c 0,3.702 5.643,6.704 12.604,6.704 6.96,0 12.604,-3.002 12.604,-6.704 v -8.848 c -0.001,3.702 -5.644,6.704 -12.604,6.704 z"
   id="path3" />
					<path
   style="fill:#65b6f8"
   d="m 155.253,287.958 c -6.961,0 -12.604,3.001 -12.604,6.704 0,3.702 5.643,6.704 12.604,6.704 6.96,0 12.604,-3.002 12.604,-6.704 -0.001,-3.702 -5.644,-6.704 -12.604,-6.704 z"
   id="path4" />
				</g>
				<g
   id="g6">
					<path
   style="opacity:0.5;fill:#e6f3ff"
   d="m 155.253,302.814 c -9.642,0 -17.459,-4.159 -17.459,-9.287 v 12.256 c 0,5.128 7.817,9.287 17.459,9.287 9.642,0 17.458,-4.158 17.458,-9.287 v -12.256 c 0,5.128 -7.817,9.287 -17.458,9.287 z"
   id="path5" />
					<path
   style="opacity:0.5;fill:#ffffff"
   d="m 155.253,284.241 c -9.642,0 -17.459,4.158 -17.459,9.287 0,5.128 7.817,9.287 17.459,9.287 9.642,0 17.458,-4.159 17.458,-9.287 0,-5.13 -7.817,-9.287 -17.458,-9.287 z"
   id="path6" />
				</g>
			</g>
			<g
   id="g11">
				<g
   id="g8">
					<path
   style="fill:#399ee2"
   d="m 190.17,280.985 c -6.961,0 -12.604,-3.002 -12.604,-6.704 v 8.848 c 0,3.702 5.643,6.704 12.604,6.704 6.961,0 12.604,-3.002 12.604,-6.704 v -8.848 c 0,3.702 -5.643,6.704 -12.604,6.704 z"
   id="path7" />
					<path
   style="fill:#65b6f8"
   d="m 190.17,267.576 c -6.961,0 -12.604,3.001 -12.604,6.704 0,3.702 5.643,6.704 12.604,6.704 6.961,0 12.604,-3.002 12.604,-6.704 0,-3.703 -5.643,-6.704 -12.604,-6.704 z"
   id="path8" />
				</g>
				<g
   id="g10">
					<path
   style="opacity:0.5;fill:#e6f3ff"
   d="m 190.17,282.432 c -9.642,0 -17.459,-4.159 -17.459,-9.287 v 12.256 c 0,5.128 7.817,9.287 17.459,9.287 9.642,0 17.458,-4.158 17.458,-9.287 v -12.256 c 0,5.128 -7.817,9.287 -17.458,9.287 z"
   id="path9" />
					<path
   style="opacity:0.5;fill:#ffffff"
   d="m 190.17,263.858 c -9.642,0 -17.459,4.158 -17.459,9.287 0,5.128 7.817,9.287 17.459,9.287 9.642,0 17.458,-4.159 17.458,-9.287 0,-5.129 -7.817,-9.287 -17.458,-9.287 z"
   id="path10" />
				</g>
			</g>
			<g
   id="g15">
				<g
   id="g12">
					<path
   style="fill:#399ee2"
   d="m 192.142,322.117 c -6.961,0 -12.604,-3.002 -12.604,-6.704 v 8.848 c 0,3.702 5.643,6.704 12.604,6.704 6.961,0 12.604,-3.002 12.604,-6.704 v -8.848 c 0,3.703 -5.643,6.704 -12.604,6.704 z"
   id="path11" />
					<path
   style="fill:#65b6f8"
   d="m 192.142,308.709 c -6.961,0 -12.604,3.002 -12.604,6.704 0,3.702 5.643,6.704 12.604,6.704 6.961,0 12.604,-3.002 12.604,-6.704 0,-3.703 -5.643,-6.704 -12.604,-6.704 z"
   id="path12" />
				</g>
				<g
   id="g14">
					<path
   style="opacity:0.5;fill:#e6f3ff"
   d="m 192.142,323.565 c -9.642,0 -17.459,-4.158 -17.459,-9.287 v 12.256 c 0,5.128 7.817,9.287 17.459,9.287 9.642,0 17.458,-4.159 17.458,-9.287 v -12.256 c 0,5.128 -7.816,9.287 -17.458,9.287 z"
   id="path13" />
					<path
   style="opacity:0.5;fill:#ffffff"
   d="m 192.142,304.991 c -9.642,0 -17.459,4.157 -17.459,9.287 0,5.128 7.817,9.287 17.459,9.287 9.642,0 17.458,-4.158 17.458,-9.287 0,-5.129 -7.816,-9.287 -17.458,-9.287 z"
   id="path14" />
				</g>
			</g>
			<g
   id="g19">
				<g
   id="g16">
					<path
   style="fill:#399ee2"
   d="m 227.059,301.735 c -6.961,0 -12.604,-3.002 -12.604,-6.704 v 8.848 c 0,3.702 5.643,6.704 12.604,6.704 6.961,0 12.604,-3.002 12.604,-6.704 v -8.848 c 0,3.702 -5.643,6.704 -12.604,6.704 z"
   id="path15" />
					<path
   style="fill:#65b6f8"
   d="m 227.059,288.327 c -6.961,0 -12.604,3.002 -12.604,6.704 0,3.702 5.643,6.704 12.604,6.704 6.961,0 12.604,-3.002 12.604,-6.704 0,-3.703 -5.643,-6.704 -12.604,-6.704 z"
   id="path16" />
				</g>
				<g
   id="g18">
					<path
   style="opacity:0.5;fill:#e6f3ff"
   d="m 227.06,303.182 c -9.643,0 -17.459,-4.158 -17.459,-9.287 v 12.255 c 0,5.128 7.817,9.287 17.459,9.287 9.641,0 17.458,-4.159 17.458,-9.287 v -12.255 c 0,5.129 -7.817,9.287 -17.458,9.287 z"
   id="path17" />
					<path
   style="opacity:0.5;fill:#ffffff"
   d="m 227.06,284.609 c -9.643,0 -17.459,4.157 -17.459,9.287 0,5.128 7.817,9.287 17.459,9.287 9.641,0 17.458,-4.158 17.458,-9.287 0,-5.129 -7.817,-9.287 -17.458,-9.287 z"
   id="path18" />
				</g>
			</g>
		</g>
		<g
   id="g37">
			<g
   id="g24">
				<g
   id="g21">
					<path
   style="fill:#399ee2"
   d="m 229.031,342.868 c -6.961,0 -12.604,-3.002 -12.604,-6.704 v 8.848 c 0,3.702 5.643,6.704 12.604,6.704 6.961,0 12.604,-3.002 12.604,-6.704 v -8.848 c 0,3.702 -5.643,6.704 -12.604,6.704 z"
   id="path20" />
					<path
   style="fill:#65b6f8"
   d="m 229.031,329.46 c -6.961,0 -12.604,3.002 -12.604,6.704 0,3.702 5.643,6.704 12.604,6.704 6.961,0 12.604,-3.002 12.604,-6.704 0,-3.703 -5.643,-6.704 -12.604,-6.704 z"
   id="path21" />
				</g>
				<g
   id="g23">
					<path
   style="opacity:0.5;fill:#e6f3ff"
   d="m 229.032,344.315 c -9.643,0 -17.459,-4.158 -17.459,-9.287 v 12.256 c 0,5.128 7.817,9.287 17.459,9.287 9.641,0 17.458,-4.159 17.458,-9.287 v -12.256 c 0,5.129 -7.817,9.287 -17.458,9.287 z"
   id="path22" />
					<path
   style="opacity:0.5;fill:#ffffff"
   d="m 229.032,325.742 c -9.643,0 -17.459,4.158 -17.459,9.287 0,5.128 7.817,9.287 17.459,9.287 9.641,0 17.458,-4.158 17.458,-9.287 0,-5.129 -7.817,-9.287 -17.458,-9.287 z"
   id="path23" />
				</g>
			</g>
			<g
   id="g28">
				<g
   id="g25">
					<path
   style="fill:#399ee2"
   d="m 263.949,322.486 c -6.961,0 -12.604,-3.002 -12.604,-6.704 v 8.848 c 0,3.702 5.643,6.704 12.604,6.704 6.961,0 12.604,-3.002 12.604,-6.704 v -8.848 c 0,3.702 -5.644,6.704 -12.604,6.704 z"
   id="path24" />
					<path
   style="fill:#65b6f8"
   d="m 263.949,309.077 c -6.961,0 -12.604,3.002 -12.604,6.704 0,3.702 5.643,6.704 12.604,6.704 6.961,0 12.604,-3.002 12.604,-6.704 0,-3.702 -5.644,-6.704 -12.604,-6.704 z"
   id="path25" />
				</g>
				<g
   id="g27">
					<path
   style="opacity:0.5;fill:#e6f3ff"
   d="m 263.949,323.933 c -9.643,0 -17.459,-4.158 -17.459,-9.287 v 12.256 c 0,5.128 7.817,9.287 17.459,9.287 9.641,0 17.458,-4.159 17.458,-9.287 v -12.256 c 0,5.129 -7.817,9.287 -17.458,9.287 z"
   id="path26" />
					<path
   style="opacity:0.5;fill:#ffffff"
   d="m 263.949,305.36 c -9.643,0 -17.459,4.158 -17.459,9.287 0,5.128 7.817,9.287 17.459,9.287 9.641,0 17.458,-4.158 17.458,-9.287 0,-5.13 -7.817,-9.287 -17.458,-9.287 z"
   id="path27" />
				</g>
			</g>
			<g
   id="g32">
				<g
   id="g29">
					<path
   style="fill:#399ee2"
   d="m 265.921,363.619 c -6.961,0 -12.604,-3.002 -12.604,-6.704 v 8.848 c 0,3.702 5.643,6.704 12.604,6.704 6.961,0 12.604,-3.002 12.604,-6.704 v -8.848 c 0,3.702 -5.643,6.704 -12.604,6.704 z"
   id="path28" />
					<path
   style="fill:#65b6f8"
   d="m 265.921,350.21 c -6.961,0 -12.604,3.001 -12.604,6.704 0,3.702 5.643,6.704 12.604,6.704 6.961,0 12.604,-3.002 12.604,-6.704 0,-3.702 -5.643,-6.704 -12.604,-6.704 z"
   id="path29" />
				</g>
				<g
   id="g31">
					<path
   style="opacity:0.5;fill:#e6f3ff"
   d="m 265.921,365.066 c -9.643,0 -17.459,-4.159 -17.459,-9.287 v 12.256 c 0,5.128 7.817,9.287 17.459,9.287 9.641,0 17.458,-4.158 17.458,-9.287 v -12.256 c 0,5.129 -7.816,9.287 -17.458,9.287 z"
   id="path30" />
					<path
   style="opacity:0.5;fill:#ffffff"
   d="m 265.921,346.493 c -9.643,0 -17.459,4.158 -17.459,9.287 0,5.128 7.817,9.287 17.459,9.287 9.641,0 17.458,-4.159 17.458,-9.287 0,-5.13 -7.816,-9.287 -17.458,-9.287 z"
   id="path31" />
				</g>
			</g>
			<g
   id="g36">
				<g
   id="g33">
					<path
   style="fill:#399ee2"
   d="m 300.838,343.237 c -6.961,0 -12.604,-3.002 -12.604,-6.704 v 8.848 c 0,3.702 5.643,6.704 12.604,6.704 6.961,0 12.604,-3.002 12.604,-6.704 v -8.848 c 0,3.702 -5.643,6.704 -12.604,6.704 z"
   id="path32" />
					<path
   style="fill:#65b6f8"
   d="m 300.838,329.828 c -6.961,0 -12.604,3.001 -12.604,6.704 0,3.702 5.643,6.704 12.604,6.704 6.961,0 12.604,-3.002 12.604,-6.704 0,-3.703 -5.643,-6.704 -12.604,-6.704 z"
   id="path33" />
				</g>
				<g
   id="g35">
					<path
   style="opacity:0.5;fill:#e6f3ff"
   d="m 300.839,344.684 c -9.643,0 -17.459,-4.159 -17.459,-9.287 v 12.256 c 0,5.128 7.817,9.286 17.459,9.286 9.641,0 17.458,-4.158 17.458,-9.286 v -12.256 c 0,5.128 -7.817,9.287 -17.458,9.287 z"
   id="path34" />
					<path
   style="opacity:0.5;fill:#ffffff"
   d="m 300.839,326.111 c -9.643,0 -17.459,4.158 -17.459,9.287 0,5.128 7.817,9.287 17.459,9.287 9.641,0 17.458,-4.159 17.458,-9.287 0,-5.13 -7.817,-9.287 -17.458,-9.287 z"
   id="path35" />
				</g>
			</g>
		</g>
	</g>
	<g
   id="g53">
		<path
   style="fill:#ea3636"
   d="m 348.398,278.453 c -16.665,0 -30.175,7.186 -30.175,16.051 0,8.865 13.51,16.051 30.175,16.051 16.665,0 30.175,-7.186 30.175,-16.051 0,-8.865 -13.509,-16.051 -30.175,-16.051 z"
   id="path38" />
		<path
   style="fill:#f74d41"
   d="m 311.15,203.632 v 80.903 c 0,10.943 16.677,19.813 37.248,19.813 20.571,0 37.248,-8.87 37.248,-19.813 v -80.903 z"
   id="path39" />
		<path
   style="fill:#efe2e1"
   d="m 348.398,238.592 c -20.571,0 -37.248,-8.87 -37.248,-19.812 v 47.408 c 0,10.942 16.676,19.812 37.248,19.812 20.572,0 37.248,-8.87 37.248,-19.812 V 218.78 c 10e-4,10.942 -16.676,19.812 -37.248,19.812 z"
   id="path40" />
		<path
   style="fill:#ff5e4c"
   d="m 385.647,202.809 c 0,-10.856 -13.583,-21.164 -13.583,-21.164 l -4.906,4.961 c -5.528,-1.727 -11.885,-2.787 -18.759,-2.787 -6.874,0 -13.231,1.061 -18.758,2.787 l -4.906,-4.961 c 0,0 -13.583,10.308 -13.583,21.164 0,0.102 0,0.621 0,0.822 0,10.943 16.676,19.814 37.248,19.814 20.572,0 37.248,-8.871 37.248,-19.814 -0.001,-0.201 -0.001,-0.719 -0.001,-0.822 z"
   id="path41" />
		<path
   style="fill:#f74d41"
   d="m 348.398,174.424 c -15.163,0 -27.454,6.539 -27.454,14.604 0,8.065 12.292,14.604 27.454,14.604 15.163,0 27.455,-6.538 27.455,-14.604 0,-8.065 -12.292,-14.604 -27.455,-14.604 z"
   id="path42" />
		<ellipse
   style="fill:#ea3636"
   cx="348.39801"
   cy="184.494"
   rx="18.931"
   ry="10.07"
   id="ellipse42" />
		<g
   id="g48">
			<path
   style="fill:#dec9c5"
   d="m 325.206,153.019 v 19.138 c 0,2.258 1.451,4.258 3.442,6.079 v -14.691 c 0,-0.911 0.559,-1.333 1.242,-0.938 0.682,0.394 1.241,1.462 1.241,2.372 v 15.217 c 1.937,1.177 4.241,2.125 6.887,2.844 v -14.984 c 0,-0.788 0.645,-1.433 1.433,-1.433 0.789,0 1.434,0.645 1.434,1.433 v 15.631 c 2.144,0.396 4.381,0.682 6.759,0.726 v -15.469 c 0,-0.788 0.645,-1.433 1.435,-1.433 0.789,0 1.434,0.645 1.434,1.433 v 15.323 c 2.414,-0.122 4.822,-0.276 6.964,-0.761 v -16.063 c 0,-0.79 0.646,-1.435 1.435,-1.435 0.789,0 1.434,0.645 1.434,1.435 v 15.036 c 2.19,-0.721 4.117,-1.559 5.742,-2.614 V 164.98 c 0,-0.91 0.559,-1.977 1.242,-2.372 0.682,-0.394 1.241,0.028 1.241,0.938 v 14.359 c 1.761,-1.74 3.02,-3.633 3.02,-5.747 V 153.02 h -46.385 z"
   id="path43" />
			<path
   style="fill:#bc9b96"
   d="m 349.08,167.51 c -0.789,0 -1.435,0.645 -1.435,1.433 v 15.469 c 0.265,0.004 0.486,0.081 0.753,0.081 0.75,0 1.384,-0.19 2.116,-0.227 v -15.323 c 0,-0.788 -0.645,-1.433 -1.434,-1.433 z"
   id="path44" />
			<path
   style="fill:#bc9b96"
   d="m 339.452,166.623 c -0.788,0 -1.433,0.645 -1.433,1.433 v 14.984 c 0.937,0.254 1.862,0.461 2.867,0.647 v -15.631 c 0,-0.788 -0.645,-1.433 -1.434,-1.433 z"
   id="path45" />
			<path
   style="fill:#bc9b96"
   d="m 358.912,166.007 c -0.788,0 -1.435,0.645 -1.435,1.435 v 16.063 c 1.078,-0.244 1.882,-0.702 2.868,-1.028 v -15.036 c 0,-0.789 -0.644,-1.434 -1.433,-1.434 z"
   id="path46" />
			<path
   style="fill:#bc9b96"
   d="m 367.329,162.607 c -0.683,0.394 -1.242,1.462 -1.242,2.372 v 14.885 c 0.941,-0.611 1.773,-1.26 2.483,-1.959 v -14.359 c 0.001,-0.912 -0.558,-1.334 -1.241,-0.939 z"
   id="path47" />
			<path
   style="fill:#bc9b96"
   d="m 329.891,162.607 c -0.683,-0.394 -1.242,0.028 -1.242,0.938 v 14.691 c 0.75,0.685 1.506,1.366 2.483,1.96 v -15.217 c 0,-0.91 -0.559,-1.978 -1.241,-2.372 z"
   id="path48" />
		</g>
		<path
   style="fill:#ead9d8"
   d="m 348.398,140.682 c -12.809,0 -23.193,5.523 -23.193,12.337 0,6.813 10.384,12.337 23.193,12.337 12.809,0 23.193,-5.523 23.193,-12.337 0,-6.813 -10.383,-12.337 -23.193,-12.337 z"
   id="path49" />
		<path
   style="fill:#efe2e1"
   d="m 348.609,140.682 c -9.652,0 -17.478,4.162 -17.478,9.297 0,5.135 7.825,9.297 17.478,9.297 9.653,0 17.478,-4.162 17.478,-9.297 0,-5.134 -7.825,-9.297 -17.478,-9.297 z"
   id="path50" />
		<path
   style="fill:#ffffff"
   d="m 321.638,188.08 c -2.753,2.948 -5.222,7.404 -6.187,9.696 -0.938,2.229 -2.747,6.786 -0.955,9.04 1.47,1.85 3.537,0.503 4.3,-1.199 0.922,-2.053 1.249,-4.527 1.825,-6.709 0.743,-2.814 2.156,-7.038 2.778,-9.881 0.309,-1.408 -0.203,-2.616 -1.761,-0.947 z"
   id="path51" />
		<path
   style="fill:#f44a3d"
   d="m 368.273,260.803 c 0.294,11.634 -8.799,19.451 -19.654,19.451 -10.854,0 -19.654,-7.818 -19.654,-19.451 0,-9.86 8.799,-16.253 19.654,-16.253 10.855,10e-4 19.405,6.397 19.654,16.253 z"
   id="path52" />
		<path
   style="fill:#efe2e1"
   d="m 360.911,256.962 c -2.602,0.727 -5.382,1.191 -8.215,1.432 v -9.111 h -8.146 v 9.139 c -2.825,-0.22 -5.607,-0.659 -8.228,-1.359 l -1.401,-0.374 v 7.774 l 0.827,0.222 c 2.813,0.752 5.765,1.228 8.803,1.453 v 9.385 h 8.146 v -9.416 c 3.053,-0.248 6.01,-0.747 8.816,-1.53 l 0.814,-0.227 v -7.781 z"
   id="path53" />
	</g>
	<g
   id="g70">
		<g
   id="g54">
			<path
   style="fill:#399ee2"
   d="M 297.097,122.247 V 234.33 c 0,14.117 -21.514,25.56 -48.053,25.56 -26.539,0 -48.053,-11.444 -48.053,-25.56 V 121.768 Z"
   id="path54" />
		</g>
		<g
   id="g55">
			<path
   style="fill:#efe2e1"
   d="m 220.129,161.032 c 8.065,3.257 18.007,5.264 28.914,5.264 26.539,0 48.054,-11.444 48.054,-25.56 v 75.105 c 0,14.117 -21.514,25.56 -48.054,25.56 -10.908,0 -20.849,-2.006 -28.914,-5.264 z"
   id="path55" />
		</g>
		<path
   style="fill:#422c2a"
   d="m 230.584,179.131 c 5.689,1.301 11.863,2.105 18.459,2.105 26.54,0 48.054,-11.444 48.054,-25.56 v 8.584 c 0,14.116 -21.514,25.56 -48.054,25.56 -6.596,0 -12.77,-0.805 -18.459,-2.105 z"
   id="path56" />
		<path
   style="fill:#65b6f8"
   d="m 203.097,114.68 -0.052,-0.022 c 0,0 0.441,-0.863 1.34,-2.183 0.254,-0.347 0.484,-0.693 0.765,-1.032 3.46,-4.687 11.695,-13.365 27.927,-17.843 5.622,-1.55 8.834,-0.102 10.536,2.9 1.806,-0.11 3.571,-0.292 5.431,-0.292 1.901,0 3.706,0.183 5.548,0.298 1.702,-3.008 4.915,-4.458 10.543,-2.906 16.965,4.679 25.3,14.033 28.464,18.53 1.094,1.555 3.498,7.177 3.498,9.638 0,14.118 -21.514,25.562 -48.053,25.562 -26.54,0 -48.054,-11.444 -48.054,-25.562 0.001,-2.476 0.871,-4.823 2.107,-7.088 z"
   id="path57" />
		<path
   style="fill:#399ee2"
   d="m 247.999,91.563 c 14.284,0 25.863,6.16 25.863,13.758 0,7.598 -11.579,13.757 -25.863,13.757 -14.284,0 -25.863,-6.16 -25.863,-13.757 -0.001,-7.598 11.579,-13.758 25.863,-13.758 z"
   id="path58" />
		<g
   id="g65">
			<path
   style="fill:#563937"
   d="m 275.023,74.25 v 21.832 c 0,2.576 -1.655,4.858 -3.927,6.935 -0.856,0.782 -1.718,1.558 -2.833,2.236 -2.21,1.343 -4.838,2.425 -7.857,3.244 -1.069,0.29 -2.124,0.527 -3.271,0.739 -2.447,0.452 -4.998,0.778 -7.712,0.828 -0.302,0.005 -0.554,0.092 -0.858,0.092 -0.856,0 -1.579,-0.217 -2.413,-0.26 -2.755,-0.139 -5.502,-0.315 -7.945,-0.868 -1.229,-0.279 -2.147,-0.801 -3.272,-1.172 -2.498,-0.822 -4.696,-1.779 -6.55,-2.983 -1.074,-0.697 -2.024,-1.438 -2.833,-2.236 -2.009,-1.984 -3.445,-4.145 -3.445,-6.556 V 74.25 Z"
   id="path59" />
			<g
   id="g64">
				<path
   style="fill:#422c2a"
   d="m 247.787,90.781 c 0.901,0 1.636,0.736 1.636,1.635 v 17.647 c -0.302,0.005 -0.554,0.092 -0.858,0.092 -0.856,0 -1.579,-0.217 -2.413,-0.259 v -17.48 c 0,-0.899 0.736,-1.635 1.635,-1.635 z"
   id="path60" />
				<path
   style="fill:#422c2a"
   d="m 258.77,89.769 c 0.9,0 1.636,0.736 1.636,1.636 v 17.093 c -1.069,0.29 -2.124,0.527 -3.271,0.739 V 91.405 c 0,-0.9 0.736,-1.636 1.635,-1.636 z"
   id="path61" />
				<path
   style="fill:#422c2a"
   d="m 236.571,89.067 c 0.9,0 1.636,0.736 1.636,1.636 v 18.326 c -1.229,-0.279 -2.147,-0.801 -3.272,-1.172 V 90.703 c 0,-0.9 0.736,-1.636 1.636,-1.636 z"
   id="path62" />
				<path
   style="fill:#422c2a"
   d="m 226.968,85.188 c 0.78,0.45 1.417,1.668 1.417,2.706 v 16.98 c -1.074,-0.697 -2.023,-1.438 -2.833,-2.236 v -16.38 c 0,-1.039 0.637,-1.52 1.416,-1.07 z"
   id="path63" />
				<path
   style="fill:#422c2a"
   d="m 269.679,85.188 c 0.779,-0.45 1.417,0.032 1.417,1.07 v 16.76 c -0.856,0.782 -1.718,1.558 -2.833,2.236 v -17.36 c 0,-1.038 0.638,-2.257 1.416,-2.706 z"
   id="path64" />
			</g>
			<path
   style="fill:#664444"
   d="m 248.565,60.176 c 14.613,0 26.458,6.301 26.458,14.074 0,7.773 -11.846,14.074 -26.458,14.074 -14.613,0 -26.459,-6.301 -26.459,-14.074 0,-7.773 11.846,-14.074 26.459,-14.074 z"
   id="path65" />
		</g>
		<g
   id="g67">
			<path
   style="fill:#bc9b96"
   d="m 273.135,199.648 c 6.369,-3.005 16.492,-3.084 16.492,-3.084 l 2.744,5.351 c 2.418,5.124 -2.275,12.416 -10.48,16.288 -8.039,3.793 -16.431,2.87 -19.043,-1.986 l -2.936,-5.632 c -10e-4,0 6.854,-7.932 13.223,-10.937 z"
   id="path66" />
			<path
   style="fill:#dec9c5"
   d="m 279.147,212.852 c 8.205,-3.872 12.897,-11.164 10.48,-16.288 -2.418,-5.124 -11.03,-6.139 -19.235,-2.267 -8.206,3.872 -12.898,11.164 -10.48,16.288 2.417,5.124 11.029,6.139 19.235,2.267 z"
   id="path67" />
		</g>
		<g
   id="g69">
			<path
   style="fill:#bc9b96"
   d="m 234.022,206.52 c 4.584,-0.588 10.764,0.505 17.014,3.412 6.731,3.131 11.872,7.558 14.166,11.71 l 3.278,1.59 -2.454,5.15 c -2.424,5.211 -13.066,5.401 -23.768,0.422 -10.702,-4.979 -17.414,-13.239 -14.99,-18.451 l 2.698,-5.801 z"
   id="path68" />
			<path
   style="fill:#d1b8b4"
   d="m 244.956,223.004 c 10.702,4.979 21.344,4.79 23.768,-0.422 2.424,-5.211 -4.287,-13.472 -14.99,-18.45 -10.702,-4.978 -21.344,-4.789 -23.768,0.422 -2.424,5.211 4.287,13.471 14.99,18.45 z"
   id="path69" />
		</g>
	</g>
	<g
   id="g73">
		<path
   style="fill:#c4a8a5"
   d="m 122.148,343.684 c -4.137,-1.957 -9.571,-3.156 -15.543,-3.156 -5.972,0 -11.406,1.199 -15.543,3.156 l -7.878,-5.071 v 14.373 c 0,6.881 10.486,12.458 23.421,12.458 12.936,0 23.422,-5.578 23.422,-12.458 v -14.373 z"
   id="path70" />
		<g
   id="g71">
			<path
   style="fill:#efe2e1"
   d="m 106.605,326.155 c -12.935,0 -23.421,5.578 -23.421,12.459 0,6.88 10.486,12.458 23.421,12.458 12.936,0 23.422,-5.578 23.422,-12.458 0,-6.881 -10.487,-12.459 -23.422,-12.459 z"
   id="path71" />
		</g>
		<g
   id="g72">
			<path
   style="fill:#d1b8b4"
   d="m 97.687,327.287 -8.511,3.013 29.603,18.953 3.708,-1.491 c 0,0 3.191,-2.017 2.861,-2.228 -0.329,-0.21 -27.661,-18.247 -27.661,-18.247 z"
   id="path72" />
		</g>
	</g>
	<g
   id="g76">
		<path
   style="fill:#c4a8a5"
   d="m 148.944,366.251 c 4.137,-1.957 9.57,-3.157 15.543,-3.157 5.973,0 11.406,1.199 15.543,3.157 l 7.878,-5.071 v 14.373 c 0,6.88 -10.486,12.458 -23.421,12.458 -12.936,0 -23.422,-5.578 -23.422,-12.458 V 361.18 Z"
   id="path73" />
		<g
   id="g74">
			<path
   style="fill:#efe2e1"
   d="m 164.488,348.721 c 12.935,0 23.421,5.578 23.421,12.458 0,6.88 -10.486,12.458 -23.421,12.458 -12.936,0 -23.422,-5.578 -23.422,-12.458 0,-6.88 10.486,-12.458 23.422,-12.458 z"
   id="path74" />
		</g>
		<g
   id="g75">
			<path
   style="fill:#d1b8b4"
   d="m 173.405,349.854 8.511,3.013 -29.604,18.953 -3.708,-1.491 c 0,0 -3.19,-2.017 -2.861,-2.228 0.33,-0.21 27.662,-18.247 27.662,-18.247 z"
   id="path75" />
		</g>
	</g>
	<g
   id="g82">
		<path
   style="fill:#7fa521"
   d="m 101.596,158.652 v 80.417 c 0,10.128 15.436,18.339 34.477,18.339 19.041,0 34.477,-8.211 34.477,-18.339 v -80.76 z"
   id="path76" />
		<g
   id="g78">
			<g
   id="g77">
				<path
   style="fill:#efe2e1"
   d="m 101.596,171.335 v 51.593 c 0,10.128 15.436,18.339 34.477,18.339 8.415,0 16.119,-1.608 22.105,-4.271 v -51.593 c -5.986,2.664 -13.69,4.272 -22.105,4.272 -19.041,-0.001 -34.477,-8.211 -34.477,-18.34 z"
   id="path77" />
			</g>
		</g>
		<path
   style="fill:#422c2a"
   d="m 149.333,196.078 c -4.085,0.909 -8.554,1.427 -13.26,1.427 -19.041,0 -34.477,-8.211 -34.477,-18.339 v 8.38 c 0,10.129 15.436,18.339 34.477,18.339 4.706,0 9.175,-0.518 13.26,-1.427 z"
   id="path78" />
		<path
   style="fill:#dec9c5"
   d="m 167.508,142.699 c -7.226,-4.876 -18.405,-8.017 -30.983,-8.017 -7.58,0 -14.635,1.157 -20.647,3.127 l -3.267,-0.309 -15.546,9.231 v 8.942 c 0,11.592 17.667,20.99 39.46,20.99 21.794,0 39.461,-9.398 39.461,-20.99 v -8.942 z"
   id="path79" />
		<path
   style="fill:#efe2e1"
   d="m 136.525,125.74 c -21.793,0 -39.46,9.397 -39.46,20.99 0,11.592 17.667,20.99 39.46,20.99 21.794,0 39.461,-9.398 39.461,-20.99 0,-11.592 -17.667,-20.99 -39.461,-20.99 z"
   id="path80" />
		<path
   style="fill:#7fa521"
   d="m 162.675,132.967 c -6.064,-4.092 -15.445,-6.728 -26.002,-6.728 -6.361,0 -12.282,0.971 -17.327,2.624 l -2.742,-0.26 -13.046,5.038 v 10.213 c 0,9.728 14.826,17.615 33.115,17.615 18.29,0 33.117,-7.887 33.117,-17.615 v -10.213 z"
   id="path81" />
		<path
   style="fill:#97c941"
   d="m 136.674,116.025 c -18.289,0 -33.116,7.886 -33.116,17.616 0,9.728 14.826,17.615 33.116,17.615 18.29,0 33.117,-7.887 33.117,-17.615 -0.001,-9.73 -14.827,-17.616 -33.117,-17.616 z"
   id="path82" />
	</g>
	<g
   id="g85">
		<path
   style="fill:#399ee2"
   d="m 64.354,269.049 3.744,-0.754 c 2.422,-2.754 5.946,-5.384 10.47,-7.568 9.41,-4.542 20.458,-5.922 28.492,-4.079 1.782,0.409 3.392,0.995 4.828,1.722 l 6.003,0.188 c 0,0 0.025,7.916 -0.012,8.606 -0.28,5.261 -5.386,11.184 -14.182,15.43 -13.057,6.303 -29.267,6.517 -36.207,0.479 -2.325,-2.023 -3.286,-4.496 -3.082,-7.122 z"
   id="path83" />
		<path
   style="fill:#65b6f8"
   d="m 78.568,252.241 c -13.057,6.303 -18.017,16.308 -11.077,22.346 6.939,6.039 23.15,5.825 36.207,-0.478 13.057,-6.303 18.017,-16.308 11.077,-22.346 -6.94,-6.039 -23.151,-5.825 -36.207,0.478 z"
   id="path84" />
		<path
   style="fill:#399ee2"
   d="m 85.12,249.781 c 13.804,6.076 19.522,16.336 19.522,16.336 l -4.806,2.932 c 0,0 -10.752,-13.251 -21.269,-16.808 z"
   id="path85" />
	</g>
</g>
</svg>
