<?xml version="1.0" encoding="UTF-8" standalone="no"?>
<!-- Generator: Adobe Illustrator 27.5.0, SVG Export Plug-In . SVG Version: 6.00 Build 0)  -->

<svg
   version="1.1"
   x="0px"
   y="0px"
   viewBox="0 0 2200 2200"
   style="enable-background:new 0 0 2200 2200;"
   xml:space="preserve"
   id="svg4"
   sodipodi:docname="userSettings.svg"
   inkscape:version="1.4 (86a8ad7, 2024-10-11)"
   xmlns:inkscape="http://www.inkscape.org/namespaces/inkscape"
   xmlns:sodipodi="http://sodipodi.sourceforge.net/DTD/sodipodi-0.dtd"
   xmlns="http://www.w3.org/2000/svg"
   xmlns:svg="http://www.w3.org/2000/svg"><defs
   id="defs4" /><sodipodi:namedview
   id="namedview4"
   pagecolor="#505050"
   bordercolor="#eeeeee"
   borderopacity="1"
   inkscape:showpageshadow="0"
   inkscape:pageopacity="0"
   inkscape:pagecheckerboard="0"
   inkscape:deskcolor="#505050"
   inkscape:zoom="0.37863636"
   inkscape:cx="1098.6795"
   inkscape:cy="1100"
   inkscape:window-width="1920"
   inkscape:window-height="1051"
   inkscape:window-x="-9"
   inkscape:window-y="-9"
   inkscape:window-maximized="1"
   inkscape:current-layer="g3" />

<g
   id="Objects">
	<g
   id="g4">
		<g
   id="g3"
   transform="matrix(1.3722412,0,0,1.3722412,-409.29016,-313.23053)">
			<g
   id="g1">
				<path
   style="fill:#8f8f8f;fill-opacity:1"
   d="m 1893.38,923.391 c -4.185,-20.629 -19.38,-37.291 -39.44,-43.67 -31.217,-9.926 -62.434,-19.852 -93.65,-29.778 -15.339,-56.383 -37.708,-109.869 -66.106,-159.461 15.064,-29.111 30.129,-58.221 45.194,-87.333 9.788,-18.914 8.435,-41.617 -3.368,-59.343 -17.347,-26.052 -40.266,-51.891 -69.096,-80.721 -29.041,-29.041 -55.047,-52.083 -81.292,-69.475 -17.547,-11.628 -40.073,-12.665 -58.767,-2.991 -29.113,15.066 -58.225,30.131 -87.337,45.196 -49.592,-28.398 -103.078,-50.767 -159.461,-66.107 -9.925,-31.215 -19.851,-62.43 -29.776,-93.646 -6.453,-20.296 -23.463,-35.392 -44.344,-39.58 -30.688,-6.155 -65.164,-8.22 -105.936,-8.22 -41.07,0 -75.752,2.096 -106.608,8.356 -20.629,4.185 -37.291,19.38 -43.67,39.44 -9.926,31.217 -19.852,62.434 -29.778,93.65 -56.383,15.339 -109.869,37.708 -159.461,66.107 -29.111,-15.064 -58.221,-30.129 -87.333,-45.194 -18.914,-9.788 -41.617,-8.435 -59.343,3.368 -26.052,17.347 -51.891,40.265 -80.721,69.095 -29.041,29.041 -52.083,55.047 -69.475,81.292 -11.628,17.547 -12.665,40.073 -2.991,58.767 15.066,29.113 30.131,58.225 45.196,87.337 -28.398,49.592 -50.767,103.078 -66.107,159.461 -31.215,9.925 -62.43,19.851 -93.646,29.776 -20.296,6.453 -35.392,23.463 -39.58,44.344 -6.155,30.688 -8.22,65.164 -8.22,105.936 0,41.07 2.096,75.752 8.356,106.608 4.185,20.629 19.38,37.291 39.44,43.67 31.217,9.926 62.434,19.852 93.65,29.778 15.339,56.383 37.708,109.869 66.107,159.461 -15.064,29.111 -30.129,58.221 -45.194,87.333 -9.788,18.914 -8.435,41.616 3.368,59.343 17.347,26.052 40.265,51.891 69.095,80.721 29.041,29.041 55.047,52.083 81.292,69.475 17.547,11.628 40.073,12.665 58.767,2.991 29.113,-15.066 58.225,-30.131 87.337,-45.196 49.592,28.398 103.078,50.767 159.461,66.107 9.925,31.215 19.851,62.43 29.776,93.646 6.453,20.296 23.463,35.392 44.344,39.58 30.688,6.155 65.164,8.22 105.936,8.22 41.07,0 75.752,-2.096 106.609,-8.356 20.629,-4.185 37.291,-19.38 43.67,-39.44 9.926,-31.217 19.852,-62.434 29.778,-93.65 56.383,-15.339 109.869,-37.708 159.461,-66.107 29.111,15.064 58.221,30.129 87.333,45.194 18.914,9.788 41.617,8.436 59.343,-3.368 26.052,-17.347 51.891,-40.265 80.721,-69.095 29.041,-29.041 52.083,-55.047 69.475,-81.292 11.628,-17.547 12.665,-40.073 2.991,-58.767 -15.066,-29.113 -30.131,-58.225 -45.196,-87.337 28.398,-49.592 50.767,-103.078 66.107,-159.461 31.215,-9.926 62.43,-19.851 93.646,-29.776 20.296,-6.453 35.392,-23.463 39.58,-44.344 6.155,-30.688 8.22,-65.164 8.22,-105.936 -10e-4,-41.069 -2.097,-75.752 -8.357,-106.608 z M 1100,1534.739 c -278.759,0 -504.74,-225.981 -504.74,-504.74 0,-278.759 225.981,-504.74 504.74,-504.74 278.759,0 504.74,225.981 504.74,504.74 0,278.759 -225.981,504.74 -504.74,504.74 z"
   id="path1" />
			</g>
			<path
   style="fill:#0074ff"
   d="m 1285.222,907.626 c 0,-14.841 -12.031,-26.873 -26.873,-26.873 -2.426,0 -4.774,0.327 -7.009,0.929 v -20.894 c 0,-88.87 -48.327,-146.715 -151.34,-146.715 -103.013,0 -151.34,57.845 -151.34,146.715 v 20.894 c -2.235,-0.602 -4.583,-0.929 -7.009,-0.929 -14.841,0 -26.873,12.031 -26.873,26.873 0,12.754 15.75,58.084 34.799,70.582 8.905,81.033 81.352,144.235 150.423,144.235 71.843,0 141.883,-63.215 150.46,-144.26 19.031,-12.532 34.762,-57.811 34.762,-70.557 z"
   id="path2" />
			<path
   style="fill:#0074ff"
   d="m 1403.754,1368.561 c -79.824,73.712 -186.531,118.749 -303.754,118.749 -117.223,0 -223.93,-45.037 -303.754,-118.749 2.632,-81.073 35.264,-142.65 67.43,-166.77 67.273,-50.446 153.793,-72.587 153.793,-72.587 l 40.075,96.664 31.382,-59.422 -17.362,-27.55 c 0.364,0.214 12.211,4.485 28.436,4.485 16.225,0 28.071,-4.271 28.436,-4.485 l -17.362,27.55 31.382,59.422 40.075,-96.664 c 0,0 86.519,22.142 153.793,72.587 32.166,24.12 64.798,85.696 67.43,166.77 z"
   id="path3" />
		</g>
		
	</g>
</g>
</svg>
